<?xml version="1.0" standalone="no"?>
<!DOCTYPE svg PUBLIC "-//W3C//DTD SVG 20010904//EN"
 "http://www.w3.org/TR/2001/REC-SVG-20010904/DTD/svg10.dtd">
<svg version="1.0" xmlns="http://www.w3.org/2000/svg"
 width="100.000000pt" height="40.000000pt" viewBox="0 0 304.000000 147.000000"
 preserveAspectRatio="xMidYMid meet">
<metadata>
Created by potrace 1.16, written by Peter Selinger 2001-2019
</metadata>
<g transform="translate(0.000000,147.000000) scale(0.100000,-0.100000)"
fill="#000000" stroke="none">
<path d="M1371 1334 c1 -16 131 -114 153 -114 234 -4 453 -4 448 1 -12 11
-191 79 -250 95 -65 17 -352 32 -351 18z"/>
<path d="M1142 1305 c-79 -24 -76 -22 -52 -52 11 -16 29 -38 38 -51 17 -22 19
-23 160 -16 78 4 142 11 142 16 0 16 -71 86 -104 102 -41 19 -125 20 -184 1z"/>
<path d="M1795 1200 l-100 -5 97 -7 c136 -10 286 -37 330 -59 20 -11 55 -36
78 -57 45 -44 49 -42 19 7 -35 57 -24 64 98 59 101 -3 105 -3 63 9 -73 22
-218 43 -330 49 -58 3 -116 6 -130 7 -14 1 -70 0 -125 -3z"/>
<path d="M2224 1115 c-9 -21 41 -94 72 -105 14 -6 64 -10 111 -10 l86 0 -6 33
-6 32 16 -30 c14 -24 18 -27 21 -12 4 22 -29 78 -36 59 -3 -10 -8 -7 -18 7
-19 27 -74 41 -162 41 -56 0 -74 -4 -78 -15z"/>
<path d="M1830 830 c0 -37 2 -39 38 -47 20 -4 161 -8 312 -8 286 0 372 9 385
42 10 28 -10 35 -56 21 -31 -9 -108 -13 -256 -12 -203 0 -214 1 -242 22 -25
18 -44 22 -106 22 l-75 0 0 -40z"/>
<path d="M836 546 c-95 -35 -139 -103 -134 -202 4 -70 30 -116 86 -155 30 -21
47 -24 117 -24 72 0 86 3 123 28 61 40 85 93 80 178 -3 57 -8 74 -34 105 -56
70 -158 99 -238 70z m153 -63 c91 -69 92 -190 2 -250 -45 -30 -122 -31 -169
-3 -45 28 -76 97 -67 151 8 49 55 105 99 119 43 13 104 5 135 -17z"/>
<path d="M1955 551 c-45 -11 -69 -26 -103 -65 -65 -74 -67 -183 -5 -256 69
-82 215 -96 301 -27 10 8 9 14 -4 28 -16 18 -18 18 -51 -2 -48 -30 -141 -24
-179 12 -82 77 -70 197 27 247 52 27 114 24 159 -8 26 -19 28 -19 44 -1 15 16
15 19 -3 35 -42 38 -119 53 -186 37z"/>
<path d="M60 543 c0 -5 29 -91 64 -193 63 -182 64 -185 94 -188 l30 -3 52 157
53 157 23 -64 c13 -35 38 -106 55 -157 31 -92 31 -93 62 -90 30 3 31 5 89 178
32 96 61 183 64 193 5 15 1 18 -21 15 -26 -3 -31 -12 -78 -150 -28 -82 -53
-148 -56 -148 -3 0 -29 66 -56 148 -49 143 -52 147 -79 147 -28 0 -30 -4 -80
-147 -28 -82 -53 -148 -56 -148 -3 0 -28 68 -55 150 -48 146 -50 150 -77 150
-15 0 -28 -3 -28 -7z"/>
<path d="M1227 354 l65 -195 30 3 c30 3 32 7 82 150 28 82 53 148 56 148 3 0
28 -67 55 -150 49 -150 49 -150 80 -150 l30 0 63 188 c34 103 62 191 62 195 0
4 -11 7 -24 7 -22 0 -28 -12 -76 -155 -28 -85 -53 -155 -55 -155 -2 0 -27 70
-55 155 -50 150 -53 155 -79 155 -26 0 -29 -6 -80 -155 -30 -85 -55 -155 -56
-155 -2 0 -27 70 -55 155 -50 151 -52 155 -80 155 l-28 0 65 -196z"/>
<path d="M2258 443 c-40 -16 -43 -20 -29 -42 8 -12 14 -13 36 -3 67 31 145 6
145 -46 0 -20 -5 -22 -65 -22 -96 0 -135 -24 -135 -85 0 -37 10 -55 41 -70 36
-19 110 -19 135 0 25 19 34 19 34 0 0 -9 9 -15 25 -15 l25 0 0 100 c0 117 -14
161 -59 184 -38 20 -105 20 -153 -1z"/>
<path d="M2570 310 l0 -150 25 0 c25 0 25 1 25 88 0 107 19 147 75 158 28 5
35 11 35 30 0 31 -32 32 -77 4 -33 -20 -33 -20 -33 0 0 15 -7 20 -25 20 l-25
0 0 -150z"/>
<path d="M2820 442 c-60 -30 -67 -102 -13 -134 15 -9 49 -19 75 -23 57 -9 84
-26 75 -49 -14 -37 -87 -42 -159 -12 -11 5 -20 1 -28 -14 -10 -18 -7 -22 27
-36 56 -24 155 -15 188 16 34 32 34 81 0 108 -13 11 -51 25 -85 31 -68 13 -92
38 -64 65 18 18 95 22 124 6 15 -8 21 -6 30 9 14 28 14 29 -27 40 -55 16 -103
13 -143 -7z"/>
</g>
</svg>
